<svg width="1280" height="420" viewBox="0 0 1280 420" fill="none" xmlns="http://www.w3.org/2000/svg" role="img" aria-labelledby="title desc">
  <title id="title">ConvexKit banner</title>
  <desc id="desc">A branded banner for ConvexKit, an edge-ready starter kit for TanStack Start, Convex, Better Auth, and Cloudflare Workers.</desc>
  <rect width="1280" height="420" rx="28" fill="#08111f"/>
  <path d="M0 316C142 244 255 244 389 318C529 395 677 382 816 296C961 206 1101 206 1280 286V420H0V316Z" fill="#0f766e" fill-opacity="0.38"/>
  <path d="M0 222C154 145 284 146 440 224C578 293 714 291 858 214C1002 137 1149 131 1280 188V420H0V222Z" fill="#2563eb" fill-opacity="0.28"/>
  <circle cx="1080" cy="86" r="130" fill="#22c55e" fill-opacity="0.12"/>
  <circle cx="230" cy="330" r="170" fill="#38bdf8" fill-opacity="0.10"/>
  <g transform="translate(92 82)">
    <rect x="0" y="0" width="96" height="96" rx="24" fill="#f8fafc"/>
    <path d="M28 30L48 18L68 30V54L48 66L28 54V30Z" stroke="#0f172a" stroke-width="8" stroke-linejoin="round"/>
    <path d="M48 18V66" stroke="#0f172a" stroke-width="8" stroke-linecap="round"/>
    <path d="M28 30L68 54" stroke="#0f172a" stroke-width="8" stroke-linecap="round"/>
  </g>
  <text x="92" y="230" fill="#f8fafc" font-family="Inter, ui-sans-serif, system-ui, -apple-system, BlinkMacSystemFont, Segoe UI, sans-serif" font-size="74" font-weight="800">ConvexKit</text>
  <text x="96" y="284" fill="#cbd5e1" font-family="Inter, ui-sans-serif, system-ui, -apple-system, BlinkMacSystemFont, Segoe UI, sans-serif" font-size="30" font-weight="500">The edge-ready starter kit for TanStack Start, Convex, Better Auth, and Cloudflare Workers.</text>
  <g transform="translate(96 322)" font-family="Inter, ui-sans-serif, system-ui, -apple-system, BlinkMacSystemFont, Segoe UI, sans-serif" font-size="18" font-weight="700">
    <rect x="0" y="0" width="145" height="42" rx="21" fill="#f8fafc"/>
    <text x="24" y="27" fill="#0f172a">Realtime</text>
    <rect x="161" y="0" width="116" height="42" rx="21" fill="#f8fafc" fill-opacity="0.92"/>
    <text x="185" y="27" fill="#0f172a">Auth</text>
    <rect x="293" y="0" width="132" height="42" rx="21" fill="#f8fafc" fill-opacity="0.84"/>
    <text x="317" y="27" fill="#0f172a">Workers</text>
    <rect x="441" y="0" width="126" height="42" rx="21" fill="#f8fafc" fill-opacity="0.76"/>
    <text x="465" y="27" fill="#0f172a">Terraform</text>
  </g>
</svg>
